<?xml version="1.0" encoding="UTF-8"?>
<svg xmlns="http://www.w3.org/2000/svg" xmlns:xlink="http://www.w3.org/1999/xlink" width="295.1pt" height="72.96pt" viewBox="0 0 295.1 72.96" version="1.1">
<defs>
<clipPath id="clip1">
  <path d="M 258 18 L 295.101563 18 L 295.101563 72.960938 L 258 72.960938 Z M 258 18 "/>
</clipPath>
<clipPath id="clip2">
  <path d="M 58 0 L 217 0 L 217 72.960938 L 58 72.960938 Z M 58 0 "/>
</clipPath>
</defs>
<g id="surface1">
<path style=" stroke:none;fill-rule:nonzero;fill:rgb(0%,69.398499%,74.499512%);fill-opacity:1;" d="M 237.515625 45.769531 C 232.367188 45.769531 228.160156 41.5625 228.160156 36.414063 C 228.160156 31.265625 232.304688 26.996094 237.515625 26.996094 C 242.664063 26.996094 246.871094 31.203125 246.871094 36.351563 C 246.871094 41.5 242.664063 45.769531 237.515625 45.769531 Z M 237.515625 18.332031 C 227.59375 18.332031 219.496094 26.367188 219.496094 36.351563 C 219.496094 46.335938 227.53125 54.375 237.515625 54.375 C 247.4375 54.375 255.539063 46.335938 255.539063 36.351563 C 255.539063 26.367188 247.4375 18.332031 237.515625 18.332031 "/>
<g clip-path="url(#clip1)" clip-rule="nonzero">
<path style=" stroke:none;fill-rule:nonzero;fill:rgb(0%,69.398499%,74.499512%);fill-opacity:1;" d="M 277.011719 45.769531 C 271.863281 45.769531 267.65625 41.5625 267.65625 36.414063 C 267.65625 31.265625 271.800781 26.996094 277.011719 26.996094 C 282.160156 26.996094 286.367188 31.203125 286.367188 36.351563 C 286.367188 41.5 282.160156 45.769531 277.011719 45.769531 Z M 277.011719 18.332031 C 267.089844 18.332031 258.992188 26.367188 258.992188 36.351563 C 258.992188 36.792969 258.992188 37.230469 259.054688 37.671875 L 259.746094 68.125 C 259.746094 70.761719 261 72.898438 263.386719 72.898438 C 265.773438 72.898438 267.34375 70.761719 267.34375 68.125 L 267.46875 58.078125 C 267.46875 57.953125 267.46875 57.765625 267.46875 57.640625 L 267.46875 57.011719 C 267.65625 52.867188 271.363281 53.433594 271.363281 53.433594 C 273.183594 54.058594 275.066406 54.375 277.074219 54.375 C 286.996094 54.375 295.097656 46.335938 295.097656 36.351563 C 295.097656 26.367188 286.933594 18.332031 277.011719 18.332031 "/>
</g>
<path style=" stroke:none;fill-rule:nonzero;fill:rgb(0%,69.398499%,74.499512%);fill-opacity:1;" d="M 54.351563 23.292969 C 54.351563 20.089844 53.09375 18.332031 50.707031 18.332031 C 48.324219 18.332031 46.753906 20.089844 46.753906 23.292969 L 45.875 39.554688 C 45.746094 40.246094 44.929688 44.953125 39.40625 45.332031 C 33.441406 45.707031 32.121094 38.675781 31.996094 37.042969 C 31.996094 37.042969 31.996094 37.042969 31.996094 36.980469 L 31.304688 28.1875 C 31.304688 24.988281 30.238281 23.230469 27.851563 23.230469 C 25.464844 23.230469 24.085938 24.988281 24.085938 28.1875 L 23.269531 36.980469 C 23.144531 38.550781 22.011719 45.644531 16.046875 45.269531 C 10.082031 44.890625 9.515625 39.367188 9.515625 39.367188 L 8.511719 23.164063 C 8.511719 19.964844 6.941406 18.207031 4.554688 18.207031 C 2.167969 18.207031 0.914063 19.964844 0.914063 23.164063 L 0.0976563 34.78125 C 0.0976563 34.78125 0.0976563 34.972656 0.0351563 35.347656 L 0.0351563 35.660156 C -0.0898438 37.921875 -0.0273438 43.949219 2.921875 47.78125 C 5.433594 51.800781 10.332031 54.625 16.171875 54.625 C 19.625 54.625 22.765625 53.621094 25.152344 51.988281 C 25.78125 51.484375 26.597656 51.171875 27.476563 51.171875 C 28.292969 51.171875 29.042969 51.421875 29.671875 51.863281 C 32.121094 53.558594 35.324219 54.625 38.839844 54.625 C 44.492188 54.625 49.203125 51.988281 51.839844 48.21875 C 55.542969 43.449219 54.914063 34.90625 54.914063 34.90625 L 54.351563 23.292969 "/>
<g clip-path="url(#clip2)" clip-rule="nonzero">
<path style=" stroke:none;fill-rule:nonzero;fill:rgb(0%,69.398499%,74.499512%);fill-opacity:1;" d="M 198.460938 45.769531 C 193.308594 45.769531 189.101563 41.628906 189.101563 36.476563 L 189.101563 36.414063 C 189.101563 31.265625 193.308594 27.058594 198.460938 27.058594 C 203.609375 27.058594 207.816406 31.265625 207.816406 36.414063 C 207.816406 41.5625 203.671875 45.769531 198.460938 45.769531 Z M 179.558594 50.859375 C 179.558594 50.792969 179.558594 50.792969 179.558594 50.859375 C 179.621094 50.859375 179.746094 50.921875 179.808594 50.921875 Z M 154.882813 45.769531 C 149.730469 45.769531 145.523438 41.5625 145.523438 36.414063 C 145.523438 31.265625 149.667969 26.996094 154.882813 26.996094 C 160.03125 26.996094 164.238281 31.203125 164.238281 36.351563 C 164.238281 41.5 160.03125 45.769531 154.882813 45.769531 Z M 76.265625 45.769531 C 71.117188 45.769531 66.910156 41.5625 66.910156 36.414063 C 66.910156 31.265625 71.054688 26.996094 76.265625 26.996094 C 81.476563 26.996094 85.621094 31.203125 85.621094 36.351563 C 85.621094 41.5 81.414063 45.769531 76.265625 45.769531 Z M 198.710938 18.332031 C 188.664063 18.207031 180.4375 26.304688 180.4375 36.351563 C 180.4375 36.792969 180.4375 37.230469 180.5 37.671875 L 180.375 41.753906 C 180.4375 42.066406 180.4375 42.441406 180.4375 42.820313 C 180.25 44.265625 179.117188 45.394531 177.675781 45.582031 C 176.042969 45.769531 174.597656 44.765625 174.160156 43.320313 L 172.714844 33.714844 C 172.714844 33.652344 172.714844 33.652344 172.714844 33.589844 L 172.714844 33.527344 C 171.332031 24.988281 163.921875 18.457031 154.945313 18.394531 C 145.023438 18.394531 136.921875 26.429688 136.921875 36.414063 C 136.921875 38.300781 137.238281 40.121094 137.738281 41.878906 C 137.863281 42.378906 137.800781 42.882813 137.613281 43.449219 C 137.238281 44.703125 136.105469 45.644531 134.789063 45.707031 C 134.726563 45.707031 134.660156 45.707031 134.601563 45.707031 C 133.03125 45.707031 131.710938 44.453125 131.648438 42.882813 L 130.015625 5.019531 C 130.015625 1.816406 128.761719 0.0585938 126.375 0.0585938 C 123.988281 0.0585938 122.417969 1.816406 122.417969 5.019531 L 121.160156 41.3125 C 121.097656 43.007813 120.15625 44.640625 118.585938 45.394531 C 117.960938 45.707031 117.269531 45.835938 116.578125 45.835938 C 114.757813 45.835938 113.1875 44.828125 112.433594 43.257813 C 112.371094 43.195313 112.371094 43.132813 112.308594 43.007813 C 112.308594 43.007813 112.308594 43.007813 112.308594 42.945313 L 112.308594 42.882813 C 111.617188 40.371094 111.554688 25.550781 111.554688 25.550781 L 110.550781 4.957031 C 110.550781 1.753906 109.292969 -0.00390625 106.90625 -0.00390625 C 104.519531 -0.00390625 102.953125 1.753906 102.953125 4.957031 L 101.570313 42.191406 C 101.570313 42.253906 101.570313 42.378906 101.570313 42.441406 C 101.570313 44.203125 100.125 45.644531 98.367188 45.644531 C 97.113281 45.644531 95.980469 44.890625 95.480469 43.824219 C 95.417969 43.761719 95.355469 43.574219 95.226563 43.195313 C 95.226563 43.132813 95.164063 43.007813 95.164063 42.945313 C 94.851563 41.25 94.601563 37.859375 94.601563 37.859375 L 94.160156 34.15625 L 94.160156 34.027344 C 93.03125 25.175781 85.371094 18.332031 76.203125 18.394531 C 66.28125 18.457031 58.242188 26.683594 58.304688 36.605469 C 58.367188 46.460938 66.40625 54.4375 76.328125 54.4375 C 80.09375 54.4375 83.613281 53.304688 86.5 51.296875 C 86.5 51.296875 87.882813 50.355469 88.761719 50.355469 C 89.765625 50.355469 90.519531 51.234375 90.519531 51.234375 C 92.339844 53.433594 94.914063 54.75 97.867188 54.75 C 100.378906 54.75 102.636719 53.746094 104.394531 52.050781 C 104.394531 52.050781 105.839844 50.792969 107.410156 50.730469 C 108.414063 50.667969 109.230469 51.296875 109.671875 51.671875 C 111.429688 53.558594 113.878906 54.6875 116.515625 54.6875 C 119.214844 54.6875 121.601563 53.558594 123.421875 51.671875 C 123.800781 51.484375 124.050781 51.359375 124.050781 51.359375 C 124.050781 51.359375 124.679688 50.792969 126.058594 50.730469 C 127.0625 50.667969 128.007813 51.421875 128.382813 51.738281 C 130.140625 53.558594 132.527344 54.6875 135.164063 54.6875 C 137.675781 54.6875 139.9375 53.683594 141.632813 52.050781 L 142.636719 51.296875 C 142.636719 51.296875 143.640625 50.417969 144.582031 51.296875 C 145.652344 52.300781 148.351563 53.179688 148.351563 53.179688 C 150.421875 53.996094 152.621094 54.4375 155.007813 54.4375 C 156.828125 54.4375 158.523438 54.183594 160.15625 53.683594 C 162.351563 53.179688 165.554688 51.359375 165.554688 51.359375 C 165.554688 51.359375 166.183594 50.792969 167.566406 50.730469 C 168.570313 50.667969 169.449219 51.359375 169.824219 51.738281 C 169.886719 51.800781 169.953125 51.863281 170.078125 51.988281 C 171.144531 52.992188 172.714844 53.621094 174.410156 53.621094 C 175.476563 53.621094 176.417969 53.371094 177.296875 52.992188 C 177.800781 52.804688 178.679688 52.554688 179.246094 52.617188 C 180.1875 52.804688 180.816406 53.746094 180.816406 53.746094 L 181.378906 60.527344 L 181.566406 68.1875 C 181.566406 70.824219 182.382813 72.960938 184.957031 72.960938 L 185.648438 72.960938 C 188.222656 72.960938 189.292969 70.824219 189.292969 68.25 L 189.292969 59.082031 C 189.417969 58.769531 189.480469 58.394531 189.480469 57.765625 C 189.355469 54.121094 191.675781 53.621094 192.808594 53.558594 C 194.628906 54.183594 196.574219 54.5 198.585938 54.5 C 208.632813 54.5 216.730469 46.273438 216.605469 36.226563 C 216.355469 26.429688 208.441406 18.457031 198.710938 18.332031 "/>
</g>
</g>
</svg>
